<svg width="42" height="28" viewBox="0 0 42 28" fill="none" xmlns="http://www.w3.org/2000/svg">
<path d="M38.5 28H3.5C1.56698 28 0 26.433 0 24.5V3.5C0 1.56698 1.56698 0 3.5 0H38.5C40.433 0 42 1.56698 42 3.5V24.5C42 26.433 40.433 28 38.5 28ZM9.33333 8.45833V5.54167C9.33333 5.05845 8.94155 4.66667 8.45833 4.66667H5.54167C5.05845 4.66667 4.66667 5.05845 4.66667 5.54167V8.45833C4.66667 8.94155 5.05845 9.33333 5.54167 9.33333H8.45833C8.94155 9.33333 9.33333 8.94155 9.33333 8.45833ZM16.3333 8.45833V5.54167C16.3333 5.05845 15.9416 4.66667 15.4583 4.66667H12.5417C12.0584 4.66667 11.6667 5.05845 11.6667 5.54167V8.45833C11.6667 8.94155 12.0584 9.33333 12.5417 9.33333H15.4583C15.9416 9.33333 16.3333 8.94155 16.3333 8.45833ZM23.3333 8.45833V5.54167C23.3333 5.05845 22.9416 4.66667 22.4583 4.66667H19.5417C19.0584 4.66667 18.6667 5.05845 18.6667 5.54167V8.45833C18.6667 8.94155 19.0584 9.33333 19.5417 9.33333H22.4583C22.9416 9.33333 23.3333 8.94155 23.3333 8.45833ZM30.3333 8.45833V5.54167C30.3333 5.05845 29.9416 4.66667 29.4583 4.66667H26.5417C26.0584 4.66667 25.6667 5.05845 25.6667 5.54167V8.45833C25.6667 8.94155 26.0584 9.33333 26.5417 9.33333H29.4583C29.9416 9.33333 30.3333 8.94155 30.3333 8.45833ZM37.3333 8.45833V5.54167C37.3333 5.05845 36.9416 4.66667 36.4583 4.66667H33.5417C33.0584 4.66667 32.6667 5.05845 32.6667 5.54167V8.45833C32.6667 8.94155 33.0584 9.33333 33.5417 9.33333H36.4583C36.9416 9.33333 37.3333 8.94155 37.3333 8.45833ZM12.8333 15.4583V12.5417C12.8333 12.0584 12.4416 11.6667 11.9583 11.6667H9.04167C8.55845 11.6667 8.16667 12.0584 8.16667 12.5417V15.4583C8.16667 15.9416 8.55845 16.3333 9.04167 16.3333H11.9583C12.4416 16.3333 12.8333 15.9416 12.8333 15.4583ZM19.8333 15.4583V12.5417C19.8333 12.0584 19.4416 11.6667 18.9583 11.6667H16.0417C15.5584 11.6667 15.1667 12.0584 15.1667 12.5417V15.4583C15.1667 15.9416 15.5584 16.3333 16.0417 16.3333H18.9583C19.4416 16.3333 19.8333 15.9416 19.8333 15.4583ZM26.8333 15.4583V12.5417C26.8333 12.0584 26.4416 11.6667 25.9583 11.6667H23.0417C22.5584 11.6667 22.1667 12.0584 22.1667 12.5417V15.4583C22.1667 15.9416 22.5584 16.3333 23.0417 16.3333H25.9583C26.4416 16.3333 26.8333 15.9416 26.8333 15.4583ZM33.8333 15.4583V12.5417C33.8333 12.0584 33.4416 11.6667 32.9583 11.6667H30.0417C29.5584 11.6667 29.1667 12.0584 29.1667 12.5417V15.4583C29.1667 15.9416 29.5584 16.3333 30.0417 16.3333H32.9583C33.4416 16.3333 33.8333 15.9416 33.8333 15.4583ZM9.33333 22.4583V19.5417C9.33333 19.0584 8.94155 18.6667 8.45833 18.6667H5.54167C5.05845 18.6667 4.66667 19.0584 4.66667 19.5417V22.4583C4.66667 22.9416 5.05845 23.3333 5.54167 23.3333H8.45833C8.94155 23.3333 9.33333 22.9416 9.33333 22.4583ZM30.3333 22.4583V19.5417C30.3333 19.0584 29.9416 18.6667 29.4583 18.6667H12.5417C12.0584 18.6667 11.6667 19.0584 11.6667 19.5417V22.4583C11.6667 22.9416 12.0584 23.3333 12.5417 23.3333H29.4583C29.9416 23.3333 30.3333 22.9416 30.3333 22.4583ZM37.3333 22.4583V19.5417C37.3333 19.0584 36.9416 18.6667 36.4583 18.6667H33.5417C33.0584 18.6667 32.6667 19.0584 32.6667 19.5417V22.4583C32.6667 22.9416 33.0584 23.3333 33.5417 23.3333H36.4583C36.9416 23.3333 37.3333 22.9416 37.3333 22.4583Z" fill="#0A1A50"/>
</svg>
