<svg width="77" height="87" viewBox="0 0 77 87" fill="none" xmlns="http://www.w3.org/2000/svg">
<path d="M19.19 82.14C18.71 82 18.375 81.86 18.185 81.72C18.005 81.58 17.915 81.405 17.915 81.195C17.915 81.035 17.96 80.81 18.05 80.52C18.14 80.23 18.27 79.89 18.44 79.5C18.62 79.1 18.83 78.66 19.07 78.18C19.32 77.7 19.6 77.185 19.91 76.635C19.65 76.625 19.415 76.62 19.205 76.62C19.005 76.61 18.84 76.605 18.71 76.605C18.77 76.455 18.94 76.325 19.22 76.215C19.5 76.105 19.87 76.01 20.33 75.93C20.72 75.28 21.135 74.66 21.575 74.07C22.025 73.48 22.475 72.94 22.925 72.45C23.375 71.95 23.825 71.515 24.275 71.145C24.725 70.765 25.155 70.465 25.565 70.245C25.575 70.175 25.58 70.115 25.58 70.065C25.59 70.015 25.595 69.98 25.595 69.96C25.735 69.96 25.92 69.995 26.15 70.065C26.39 70.135 26.62 70.22 26.84 70.32C27.07 70.42 27.27 70.525 27.44 70.635C27.62 70.735 27.72 70.82 27.74 70.89C27.41 71.47 27.085 72.34 26.765 73.5C26.445 74.65 26.18 76.03 25.97 77.64C25.92 78.04 25.875 78.495 25.835 79.005C25.805 79.515 25.79 80.085 25.79 80.715C25.79 80.935 25.79 81.16 25.79 81.39C25.79 81.62 25.8 81.86 25.82 82.11C25.8 82.12 25.78 82.125 25.76 82.125C25.74 82.125 25.7 82.125 25.64 82.125C25.5 82.125 25.335 82.1 25.145 82.05C24.965 82.01 24.785 81.955 24.605 81.885C24.435 81.825 24.285 81.755 24.155 81.675C24.035 81.595 23.96 81.525 23.93 81.465C23.92 81.335 23.915 81.205 23.915 81.075C23.915 80.955 23.915 80.825 23.915 80.685C23.915 80.065 23.935 79.435 23.975 78.795C24.025 78.155 24.105 77.495 24.215 76.815C24.075 76.805 23.89 76.795 23.66 76.785C23.43 76.765 23.17 76.75 22.88 76.74C22.6 76.73 22.295 76.72 21.965 76.71C21.645 76.69 21.33 76.675 21.02 76.665C20.78 77.115 20.555 77.565 20.345 78.015C20.135 78.455 19.955 78.9 19.805 79.35C19.635 79.83 19.495 80.31 19.385 80.79C19.285 81.27 19.22 81.72 19.19 82.14ZM24.98 73.125C25.02 72.985 25.065 72.795 25.115 72.555C25.175 72.305 25.23 72.045 25.28 71.775C25.03 71.865 24.75 72.03 24.44 72.27C24.14 72.51 23.825 72.81 23.495 73.17C23.175 73.52 22.845 73.92 22.505 74.37C22.175 74.81 21.855 75.28 21.545 75.78C22.385 75.71 23.34 75.665 24.41 75.645C24.49 75.225 24.575 74.81 24.665 74.4C24.765 73.98 24.87 73.555 24.98 73.125ZM27.6692 79.995C27.6692 79.905 27.6742 79.795 27.6842 79.665C27.7042 79.525 27.7342 79.345 27.7742 79.125C27.8142 78.895 27.8642 78.62 27.9242 78.3C27.9942 77.98 28.0792 77.595 28.1792 77.145C28.1992 77.045 28.2442 76.885 28.3142 76.665C28.3842 76.445 28.4742 76.215 28.5842 75.975C28.7042 75.725 28.8442 75.485 29.0042 75.255C29.1742 75.025 29.3742 74.855 29.6042 74.745C29.7742 74.785 29.9992 74.89 30.2792 75.06C30.5592 75.22 30.7992 75.445 30.9992 75.735C30.7692 75.995 30.5742 76.255 30.4142 76.515C30.2642 76.775 30.1242 77.045 29.9942 77.325C29.8742 77.605 29.7592 77.895 29.6492 78.195C29.5492 78.495 29.4342 78.81 29.3042 79.14C29.1942 79.42 29.0942 79.71 29.0042 80.01C28.9142 80.3 28.8642 80.555 28.8542 80.775C28.8542 80.955 28.8492 81.08 28.8392 81.15C28.8392 81.23 28.8142 81.27 28.7642 81.27C28.7242 81.27 28.6442 81.245 28.5242 81.195C28.4042 81.145 28.2792 81.07 28.1492 80.97C28.0292 80.86 27.9192 80.725 27.8192 80.565C27.7192 80.405 27.6692 80.215 27.6692 79.995ZM30.5342 73.485C30.5342 73.425 30.5492 73.335 30.5792 73.215C30.5292 73.165 30.4842 73.09 30.4442 72.99C30.4142 72.89 30.3992 72.8 30.3992 72.72C30.3992 72.63 30.4092 72.51 30.4292 72.36C30.4592 72.2 30.4942 72.03 30.5342 71.85C30.5742 71.67 30.6242 71.485 30.6842 71.295C30.7442 71.095 30.8042 70.915 30.8642 70.755C30.9842 70.755 31.1292 70.79 31.2992 70.86C31.4792 70.92 31.6592 71.005 31.8392 71.115C32.0192 71.215 32.1842 71.33 32.3342 71.46C32.4842 71.58 32.5992 71.695 32.6792 71.805C32.5692 71.915 32.4242 72.07 32.2442 72.27C32.0642 72.46 31.8892 72.665 31.7192 72.885C31.5492 73.095 31.3942 73.295 31.2542 73.485C31.1142 73.675 31.0242 73.81 30.9842 73.89C30.8642 73.87 30.7592 73.82 30.6692 73.74C30.5792 73.65 30.5342 73.565 30.5342 73.485ZM37.3516 82.11C37.3316 82.12 37.3116 82.125 37.2916 82.125C37.2716 82.125 37.2316 82.125 37.1716 82.125C37.0316 82.125 36.8666 82.1 36.6766 82.05C36.4966 82.01 36.3166 81.955 36.1366 81.885C35.9666 81.825 35.8166 81.755 35.6866 81.675C35.5666 81.595 35.4916 81.525 35.4616 81.465C35.4516 81.325 35.4466 81.18 35.4466 81.03C35.4466 80.88 35.4466 80.735 35.4466 80.595C35.4466 79.475 35.5266 78.305 35.6866 77.085C35.8566 75.865 36.1316 74.545 36.5116 73.125C36.5516 72.985 36.5916 72.81 36.6316 72.6C36.6816 72.38 36.7316 72.145 36.7816 71.895C36.5416 72.085 36.2566 72.39 35.9266 72.81C35.5966 73.22 35.2466 73.71 34.8766 74.28C34.5166 74.84 34.1516 75.46 33.7816 76.14C33.4216 76.81 33.0916 77.495 32.7916 78.195C32.4916 78.885 32.2316 79.57 32.0116 80.25C31.8016 80.93 31.6716 81.56 31.6216 82.14C31.1416 82 30.8066 81.86 30.6166 81.72C30.4366 81.58 30.3466 81.41 30.3466 81.21C30.3466 81.03 30.4016 80.775 30.5116 80.445C30.6216 80.115 30.7766 79.725 30.9766 79.275C31.1766 78.825 31.4216 78.325 31.7116 77.775C32.0016 77.215 32.3216 76.615 32.6716 75.975C33.0716 75.245 33.4616 74.56 33.8416 73.92C34.2316 73.28 34.6116 72.7 34.9816 72.18C35.3516 71.66 35.7116 71.21 36.0616 70.83C36.4216 70.45 36.7766 70.16 37.1266 69.96C37.2666 69.96 37.4516 69.995 37.6816 70.065C37.9216 70.135 38.1516 70.22 38.3716 70.32C38.6016 70.42 38.8016 70.525 38.9716 70.635C39.1516 70.735 39.2516 70.82 39.2716 70.89C39.1316 71.17 38.9666 71.59 38.7766 72.15C38.5866 72.71 38.3916 73.345 38.1916 74.055C38.0016 74.765 37.8166 75.52 37.6366 76.32C37.4666 77.11 37.3316 77.87 37.2316 78.6C37.4616 78.05 37.7266 77.48 38.0266 76.89C38.3366 76.29 38.6616 75.7 39.0016 75.12C39.3416 74.53 39.6866 73.96 40.0366 73.41C40.3966 72.86 40.7466 72.36 41.0866 71.91C41.4266 71.45 41.7416 71.05 42.0316 70.71C42.3316 70.37 42.5966 70.12 42.8266 69.96C42.9666 69.96 43.1516 69.995 43.3816 70.065C43.6216 70.135 43.8516 70.22 44.0716 70.32C44.3016 70.42 44.5016 70.525 44.6716 70.635C44.8516 70.735 44.9516 70.82 44.9716 70.89C44.6516 71.46 44.3716 72.155 44.1316 72.975C43.8916 73.795 43.6866 74.655 43.5166 75.555C43.3566 76.455 43.2316 77.35 43.1416 78.24C43.0616 79.12 43.0216 79.91 43.0216 80.61C43.0216 80.84 43.0216 81.08 43.0216 81.33C43.0216 81.58 43.0316 81.84 43.0516 82.11C42.9116 82.11 42.7416 82.09 42.5416 82.05C42.3516 82.02 42.1616 81.975 41.9716 81.915C41.7916 81.855 41.6266 81.785 41.4766 81.705C41.3266 81.635 41.2216 81.555 41.1616 81.465C41.1516 81.325 41.1466 81.18 41.1466 81.03C41.1466 80.88 41.1466 80.735 41.1466 80.595C41.1466 79.475 41.2266 78.305 41.3866 77.085C41.5566 75.865 41.8316 74.545 42.2116 73.125C42.2516 72.985 42.2966 72.795 42.3466 72.555C42.3966 72.315 42.4466 72.065 42.4966 71.805C42.2166 71.945 41.8966 72.215 41.5366 72.615C41.1866 73.005 40.8266 73.485 40.4566 74.055C40.0966 74.615 39.7366 75.24 39.3766 75.93C39.0266 76.62 38.7066 77.325 38.4166 78.045C38.1366 78.755 37.8966 79.465 37.6966 80.175C37.5066 80.875 37.3916 81.52 37.3516 82.11ZM50.0265 74.94C50.1265 74.94 50.2415 74.96 50.3715 75C50.5115 75.03 50.6365 75.075 50.7465 75.135C50.8565 75.185 50.9465 75.24 51.0165 75.3C51.0965 75.36 51.1365 75.415 51.1365 75.465C50.9365 75.885 50.7515 76.31 50.5815 76.74C50.4115 77.16 50.2665 77.565 50.1465 77.955C50.0265 78.345 49.9315 78.71 49.8615 79.05C49.8015 79.39 49.7715 79.685 49.7715 79.935C49.7715 80.215 49.8015 80.45 49.8615 80.64C49.9215 80.82 50.0215 80.95 50.1615 81.03C50.0415 81.11 49.8865 81.175 49.6965 81.225C49.5065 81.275 49.3365 81.3 49.1865 81.3C48.6465 81.3 48.3765 80.93 48.3765 80.19C48.3765 79.62 48.5665 78.84 48.9465 77.85C48.7465 78.31 48.5165 78.745 48.2565 79.155C47.9965 79.555 47.7315 79.91 47.4615 80.22C47.1915 80.53 46.9165 80.785 46.6365 80.985C46.3665 81.175 46.1165 81.29 45.8865 81.33C45.5165 81.31 45.2165 81.135 44.9865 80.805C44.7565 80.465 44.6415 80.035 44.6415 79.515C44.6415 78.955 44.7615 78.365 45.0015 77.745C45.2415 77.125 45.5465 76.55 45.9165 76.02C46.2965 75.49 46.7065 75.05 47.1465 74.7C47.5865 74.34 48.0115 74.15 48.4215 74.13C48.5215 74.16 48.6315 74.22 48.7515 74.31C48.8815 74.4 49.0015 74.505 49.1115 74.625C49.2315 74.745 49.3315 74.87 49.4115 75C49.4915 75.12 49.5365 75.225 49.5465 75.315C49.1465 75.375 48.7315 75.57 48.3015 75.9C47.8815 76.23 47.4965 76.63 47.1465 77.1C46.8065 77.56 46.5265 78.055 46.3065 78.585C46.0865 79.115 45.9765 79.61 45.9765 80.07C45.9765 80.26 46.0465 80.38 46.1865 80.43C46.4765 80.37 46.8115 80.125 47.1915 79.695C47.5715 79.255 48.0315 78.58 48.5715 77.67C48.6715 77.49 48.7815 77.29 48.9015 77.07C49.0315 76.85 49.1615 76.62 49.2915 76.38C49.4215 76.14 49.5465 75.9 49.6665 75.66C49.7965 75.41 49.9165 75.17 50.0265 74.94ZM51.8538 79.995C51.8538 79.905 51.8588 79.795 51.8688 79.665C51.8888 79.525 51.9188 79.345 51.9588 79.125C51.9988 78.895 52.0488 78.62 52.1088 78.3C52.1788 77.98 52.2638 77.595 52.3638 77.145C52.3838 77.045 52.4288 76.885 52.4988 76.665C52.5688 76.445 52.6588 76.215 52.7688 75.975C52.8888 75.725 53.0288 75.485 53.1888 75.255C53.3588 75.025 53.5588 74.855 53.7888 74.745C53.9588 74.785 54.1838 74.89 54.4638 75.06C54.7438 75.22 54.9838 75.445 55.1838 75.735C54.9538 75.995 54.7588 76.255 54.5988 76.515C54.4488 76.775 54.3088 77.045 54.1788 77.325C54.0588 77.605 53.9438 77.895 53.8338 78.195C53.7338 78.495 53.6188 78.81 53.4888 79.14C53.3788 79.42 53.2788 79.71 53.1888 80.01C53.0988 80.3 53.0488 80.555 53.0388 80.775C53.0388 80.955 53.0338 81.08 53.0238 81.15C53.0238 81.23 52.9988 81.27 52.9488 81.27C52.9088 81.27 52.8288 81.245 52.7088 81.195C52.5888 81.145 52.4638 81.07 52.3338 80.97C52.2138 80.86 52.1038 80.725 52.0038 80.565C51.9038 80.405 51.8538 80.215 51.8538 79.995ZM54.7188 73.485C54.7188 73.425 54.7338 73.335 54.7638 73.215C54.7138 73.165 54.6688 73.09 54.6288 72.99C54.5988 72.89 54.5838 72.8 54.5838 72.72C54.5838 72.63 54.5938 72.51 54.6138 72.36C54.6438 72.2 54.6788 72.03 54.7188 71.85C54.7588 71.67 54.8088 71.485 54.8688 71.295C54.9288 71.095 54.9888 70.915 55.0488 70.755C55.1688 70.755 55.3138 70.79 55.4838 70.86C55.6638 70.92 55.8438 71.005 56.0238 71.115C56.2038 71.215 56.3688 71.33 56.5188 71.46C56.6688 71.58 56.7838 71.695 56.8638 71.805C56.7538 71.915 56.6088 72.07 56.4288 72.27C56.2488 72.46 56.0738 72.665 55.9038 72.885C55.7338 73.095 55.5788 73.295 55.4388 73.485C55.2988 73.675 55.2088 73.81 55.1688 73.89C55.0488 73.87 54.9438 73.82 54.8538 73.74C54.7638 73.65 54.7188 73.565 54.7188 73.485ZM55.3687 80.04C55.3687 79.6 55.4737 78.985 55.6837 78.195C55.8937 77.395 56.1887 76.465 56.5687 75.405C57.1887 73.715 57.7687 72.31 58.3087 71.19C58.8587 70.06 59.3937 69.18 59.9137 68.55C60.0337 68.57 60.1787 68.62 60.3487 68.7C60.5287 68.78 60.7037 68.87 60.8737 68.97C61.0437 69.06 61.1937 69.155 61.3237 69.255C61.4637 69.355 61.5537 69.435 61.5937 69.495C60.8137 70.415 60.1287 71.405 59.5387 72.465C58.9487 73.525 58.4087 74.74 57.9187 76.11C57.4987 77.29 57.1787 78.355 56.9587 79.305C56.7387 80.245 56.6287 81.03 56.6287 81.66C56.6287 81.83 56.6287 81.935 56.6287 81.975C56.6287 82.015 56.6337 82.055 56.6437 82.095C56.5037 82.075 56.3837 82.04 56.2837 81.99C56.1837 81.94 56.1187 81.88 56.0887 81.81C56.0687 81.76 56.0137 81.685 55.9237 81.585C55.8337 81.495 55.7537 81.425 55.6837 81.375C55.5937 81.315 55.5187 81.16 55.4587 80.91C55.3987 80.65 55.3687 80.36 55.3687 80.04Z" fill="#0A1A50"/>
<path d="M36.75 23.625H35C34.0331 23.625 33.25 24.4081 33.25 25.375V30.625C33.25 38.8063 26.1964 45.3709 17.8511 44.5572C10.5777 43.8473 5.25 37.3089 5.25 30.0016V25.375C5.25 24.4081 4.46688 23.625 3.5 23.625H1.75C0.783125 23.625 0 24.4081 0 25.375V29.7675C0 39.5719 6.99672 48.312 16.625 49.6398V53.375H10.5C9.53312 53.375 8.75 54.1581 8.75 55.125V56.875C8.75 57.8419 9.53312 58.625 10.5 58.625H28C28.9669 58.625 29.75 57.8419 29.75 56.875V55.125C29.75 54.1581 28.9669 53.375 28 53.375H21.875V49.6814C31.2495 48.3952 38.5 40.3484 38.5 30.625V25.375C38.5 24.4081 37.7169 23.625 36.75 23.625ZM19.25 41.125C25.0491 41.125 29.75 36.4241 29.75 30.625H20.417C19.7728 30.625 19.25 30.2334 19.25 29.75V28C19.25 27.5166 19.7728 27.125 20.417 27.125H29.75V23.625H20.417C19.7728 23.625 19.25 23.2334 19.25 22.75V21C19.25 20.5166 19.7728 20.125 20.417 20.125H29.75V16.625H20.417C19.7728 16.625 19.25 16.2334 19.25 15.75V14C19.25 13.5166 19.7728 13.125 20.417 13.125H29.75C29.75 7.32594 25.0491 2.625 19.25 2.625C13.4509 2.625 8.75 7.32594 8.75 13.125V30.625C8.75 36.4241 13.4509 41.125 19.25 41.125Z" fill="#0A1A50"/>
<path d="M36.3125 23.625C35.5906 23.625 35 24.2156 35 24.9375V27.5625C35 28.2844 35.5906 28.875 36.3125 28.875H45.5V23.625H36.3125ZM76.4258 8.61328L68.3949 0.574219C68.0258 0.205078 67.5254 0 67.0004 0H66.5V10.5H77V9.99961C77 9.48281 76.7949 8.98242 76.4258 8.61328ZM63.875 11.1562V0H47.4688C46.3777 0 45.5 0.877734 45.5 1.96875V23.625H56V18.2766C56 17.1035 57.4191 16.5211 58.2477 17.3496L66.0898 25.2656C66.6312 25.8152 66.6312 26.693 66.0898 27.2344L58.2395 35.1422C57.4109 35.9707 55.9918 35.3883 55.9918 34.2152V28.875H45.5V40.0312C45.5 41.1223 46.3777 42 47.4688 42H75.0312C76.1223 42 77 41.1223 77 40.0312V13.125H65.8438C64.7609 13.125 63.875 12.2391 63.875 11.1562Z" fill="#0A1A50"/>
</svg>
